<svg xmlns="http://www.w3.org/2000/svg" width="18.556" height="20.405" viewBox="0 0 18.556 20.405">
  <path id="Trazado_213" data-name="Trazado 213" d="M227.713,426.872a.858.858,0,0,1-.912.912H213.808a.858.858,0,0,1-.914-.912v-6.5a.929.929,0,0,1,.249-.673.879.879,0,0,1,.665-.262H226.8a.874.874,0,0,1,.663.262.929.929,0,0,1,.249.673Zm-11.126-12.06a3.716,3.716,0,0,1,7.432,0v2.781h-7.432Zm10.214,2.781h-.935v-2.781a5.346,5.346,0,0,0-.434-2.15,5.55,5.55,0,0,0-2.977-2.979,5.546,5.546,0,0,0-4.3,0,5.549,5.549,0,0,0-2.977,2.979,5.313,5.313,0,0,0-.436,2.15v2.781h-.933a2.745,2.745,0,0,0-2.782,2.781v6.5a2.745,2.745,0,0,0,2.782,2.781H226.8a2.745,2.745,0,0,0,2.781-2.781v-6.5a2.745,2.745,0,0,0-2.781-2.781" transform="translate(-211.026 -409.249)" fill="#fff"/>
</svg>
