<svg id="Grupo_438" data-name="Grupo 438" xmlns="http://www.w3.org/2000/svg" width="27.887" height="17.436" viewBox="0 0 27.887 17.436">
  <path id="Trazado_189" data-name="Trazado 189" d="M316.008,319.745a2.279,2.279,0,0,0-1.724-.727,2.4,2.4,0,0,0-1.761.727l-9.732,10.748-9.73-10.748a2.4,2.4,0,0,0-1.762-.727,2.279,2.279,0,0,0-1.724.727,2.452,2.452,0,0,0,0,3.486L300.9,335.756a2.314,2.314,0,0,0,.87.546,3.628,3.628,0,0,0,2.034,0,2.314,2.314,0,0,0,.87-.546l11.329-12.526a2.452,2.452,0,0,0,0-3.486" transform="translate(-288.848 -319.018)" fill="#2c3e50"/>
</svg>
