<svg xmlns="http://www.w3.org/2000/svg" width="19.08" height="19.08" viewBox="0 0 19.08 19.08">
  <path id="Icon_metro-qrcode" data-name="Icon metro-qrcode" d="M8.533,3.121H3.763v4.77h4.77ZM9.726,1.928V9.083H2.571V1.928ZM4.956,4.313H7.341V6.7H4.956Zm15.5-1.193h-4.77v4.77h4.77Zm1.193-1.193V9.083H14.5V1.928h7.155Zm-4.77,2.385h2.385V6.7H16.881ZM8.533,15.046H3.763v4.77h4.77Zm1.193-1.193v7.155H2.571V13.853Zm-4.77,2.385H7.341v2.385H4.956Zm5.963-14.31h1.193V3.121H10.918Zm1.193,1.193H13.3V4.313H12.111ZM10.918,4.313h1.193V5.506H10.918Zm1.193,1.193H13.3V6.7H12.111ZM10.918,6.7h1.193V7.891H10.918Zm1.193,1.193H13.3V9.083H12.111ZM10.918,9.083h1.193v1.193H10.918Zm0,2.385h1.193v1.193H10.918Zm1.193,1.193H13.3v1.193H12.111Zm-1.193,1.193h1.193v1.193H10.918Zm1.193,1.193H13.3v1.193H12.111Zm-1.193,1.193h1.193v1.193H10.918Zm1.193,1.193H13.3v1.193H12.111Zm-1.193,1.193h1.193v1.193H10.918Zm1.193,1.193H13.3v1.193H12.111Zm8.348-8.348h1.193v1.193H20.459Zm-16.7,0H4.956v1.193H3.763Zm1.193-1.193H6.148v1.193H4.956Zm-2.385,0H3.763v1.193H2.571Zm4.77,0H8.533v1.193H7.341Zm1.193,1.193H9.726v1.193H8.533Zm1.193-1.193h1.193v1.193H9.726ZM13.3,11.468H14.5v1.193H13.3ZM14.5,10.276h1.193v1.193H14.5Zm1.193,1.193h1.193v1.193H15.689Zm1.193-1.193h1.193v1.193H16.881Zm1.193,1.193h1.193v1.193H18.074Zm1.193-1.193h1.193v1.193H19.266Zm1.193,3.578h1.193v1.193H20.459Zm-7.155,0H14.5v1.193H13.3ZM14.5,12.661h1.193v1.193H14.5Zm1.193,1.193h1.193v1.193H15.689Zm2.385,0h1.193v1.193H18.074Zm1.193-1.193h1.193v1.193H19.266Zm1.193,3.578h1.193v1.193H20.459Zm-7.155,0H14.5v1.193H13.3ZM14.5,15.046h1.193v1.193H14.5Zm2.385,0h1.193v1.193H16.881Zm1.193,1.193h1.193v1.193H18.074Zm1.193-1.193h1.193v1.193H19.266Zm1.193,3.578h1.193v1.193H20.459ZM14.5,17.431h1.193v1.193H14.5Zm1.193,1.193h1.193v1.193H15.689Zm1.193-1.193h1.193v1.193H16.881Zm1.193,1.193h1.193v1.193H18.074ZM14.5,19.816h1.193v1.193H14.5Zm2.385,0h1.193v1.193H16.881Zm2.385,0h1.193v1.193H19.266Z" transform="translate(-2.571 -1.928)" fill="#004485"/>
</svg>
