<svg xmlns="http://www.w3.org/2000/svg" width="45" height="45" viewBox="0 0 45 45">
  <g id="Grupo_1677" data-name="Grupo 1677" transform="translate(-351 -273)">
    <rect id="Rectángulo_1163" data-name="Rectángulo 1163" width="45" height="45" rx="6" transform="translate(351 273)" fill="#ececec"/>
    <path id="Icon_awesome-waze" data-name="Icon awesome-waze" d="M22.68,8.7a8.852,8.852,0,0,1-5.134,9.441,2.345,2.345,0,1,1-4.531.962c-.292.009-2.912,0-3.463-.029a2.346,2.346,0,1,1-4.572-.833A9.43,9.43,0,0,1,.461,15.026a1.185,1.185,0,0,1,.945-1.9c2.1,0,1.462-2.457,1.957-5C4.2,3.867,8.66,1,12.968,1c4.649,0,8.943,3.206,9.711,7.7Zm-5.836,8.465a8.227,8.227,0,0,0,4.368-4.633C23.048,6.945,18.3,2.186,12.968,2.186c-3.786,0-7.726,2.514-8.441,6.169-.432,2.219.227,5.958-3.119,5.958a8.386,8.386,0,0,0,4.252,2.905,2.346,2.346,0,0,1,3.621.651c.645.045,3.592.054,3.987.037a2.345,2.345,0,0,1,3.574-.745ZM9.2,8.037a1.153,1.153,0,1,1,2.306,0A1.153,1.153,0,1,1,9.2,8.037Zm5.288,0a1.154,1.154,0,1,1,2.307,0A1.154,1.154,0,1,1,14.493,8.037ZM8.931,11.244a.593.593,0,0,1,1.162-.236l0,.013A2.823,2.823,0,0,0,13,12.974a2.927,2.927,0,0,0,2.908-1.94.594.594,0,0,1,1.155.272,4.085,4.085,0,0,1-4.149,2.853,3.981,3.981,0,0,1-3.987-2.915Z" transform="translate(362.391 285.065)"/>
  </g>
</svg>
