<svg xmlns="http://www.w3.org/2000/svg" width="42" height="42" viewBox="0 0 42 42">
  <g id="Grupo_1775" data-name="Grupo 1775" transform="translate(-343 -257)">
    <rect id="Rectángulo_1222" data-name="Rectángulo 1222" width="42" height="42" rx="6" transform="translate(343 257)" fill="#ececec"/>
    <g id="Icon_feather-package" data-name="Icon feather-package" transform="translate(355 269)">
      <path id="Trazado_1583" data-name="Trazado 1583" d="M19.89,11.3,11.25,6.315" transform="translate(-6.93 -4.195)" fill="none" stroke="#272727" stroke-linecap="round" stroke-linejoin="round" stroke-width="2"/>
      <path id="Trazado_1584" data-name="Trazado 1584" d="M21.78,16.441V8.761A1.92,1.92,0,0,0,20.82,7.1L14.1,3.26a1.92,1.92,0,0,0-1.92,0L5.46,7.1A1.92,1.92,0,0,0,4.5,8.761v7.68A1.92,1.92,0,0,0,5.46,18.1l6.72,3.84a1.92,1.92,0,0,0,1.92,0l6.72-3.84a1.92,1.92,0,0,0,.96-1.661Z" transform="translate(-4.5 -3.003)" fill="none" stroke="#272727" stroke-linecap="round" stroke-linejoin="round" stroke-width="2"/>
      <path id="Trazado_1585" data-name="Trazado 1585" d="M4.905,10.44l8.381,4.848,8.381-4.848" transform="translate(-4.646 -5.68)" fill="none" stroke="#272727" stroke-linecap="round" stroke-linejoin="round" stroke-width="2"/>
      <path id="Trazado_1586" data-name="Trazado 1586" d="M18,27.677V18" transform="translate(-9.36 -8.402)" fill="none" stroke="#272727" stroke-linecap="round" stroke-linejoin="round" stroke-width="2"/>
    </g>
  </g>
</svg>
