<svg xmlns="http://www.w3.org/2000/svg" width="41" height="41" viewBox="0 0 41 41">
  <g id="Grupo_1777" data-name="Grupo 1777" transform="translate(-341 -259)">
    <rect id="Rectángulo_1216" data-name="Rectángulo 1216" width="41" height="41" rx="6" transform="translate(341 259)" fill="#ececec"/>
    <g id="Icon_feather-file-text" data-name="Icon feather-file-text" transform="translate(354.322 270.168)">
      <path id="Trazado_1622" data-name="Trazado 1622" d="M12.557,1.25H4.511A2.011,2.011,0,0,0,2.5,3.261V19.352a2.011,2.011,0,0,0,2.011,2.011H16.579a2.011,2.011,0,0,0,2.011-2.011V7.284Z" transform="translate(-2.5 -1.25)" fill="none" stroke="#000" stroke-linecap="round" stroke-linejoin="round" stroke-width="2"/>
      <path id="Trazado_1623" data-name="Trazado 1623" d="M8.75,1.25V7.284h6.034" transform="translate(1.307 -1.25)" fill="none" stroke="#000" stroke-linecap="round" stroke-linejoin="round" stroke-width="2"/>
      <path id="Trazado_1624" data-name="Trazado 1624" d="M13.045,8.125H5" transform="translate(-0.977 2.937)" fill="none" stroke="#000" stroke-linecap="round" stroke-linejoin="round" stroke-width="2"/>
      <path id="Trazado_1625" data-name="Trazado 1625" d="M13.045,10.625H5" transform="translate(-0.977 4.46)" fill="none" stroke="#000" stroke-linecap="round" stroke-linejoin="round" stroke-width="2"/>
      <path id="Trazado_1626" data-name="Trazado 1626" d="M7.011,5.625H5" transform="translate(-0.977 1.415)" fill="none" stroke="#000" stroke-linecap="round" stroke-linejoin="round" stroke-width="2"/>
    </g>
  </g>
</svg>
