<svg xmlns="http://www.w3.org/2000/svg" width="18.735" height="20.808" viewBox="0 0 18.735 20.808">
  <path id="Trazado_214" data-name="Trazado 214" d="M220.393,381.32a3.079,3.079,0,1,1-2.221.9,3.015,3.015,0,0,1,2.221-.9m0,8.317a5.353,5.353,0,0,0,2.048-.391,5.222,5.222,0,0,0,0-9.611,5.57,5.57,0,0,0-4.1,0,5.22,5.22,0,0,0-2.757,2.756,5.232,5.232,0,0,0,1.111,5.746,5.291,5.291,0,0,0,1.645,1.109,5.371,5.371,0,0,0,2.05.391m4.171,2.1h-8.342a5.288,5.288,0,0,0-2.025.391,5.443,5.443,0,0,0-1.658,1.109,4.876,4.876,0,0,0-1.1,1.647,5.071,5.071,0,0,0-.415,2.048v2.075a.972.972,0,0,0,1.051,1.047,1.007,1.007,0,0,0,.744-.28,1.036,1.036,0,0,0,.28-.767v-2.075a3.082,3.082,0,0,1,3.122-3.122h8.342a3.082,3.082,0,0,1,3.122,3.122v2.075a1.036,1.036,0,0,0,.28.767,1.007,1.007,0,0,0,.744.28.969.969,0,0,0,1.049-1.047v-2.075a5.07,5.07,0,0,0-.413-2.048,4.908,4.908,0,0,0-1.1-1.647,5.444,5.444,0,0,0-1.658-1.109,5.3,5.3,0,0,0-2.025-.391" transform="translate(-211.025 -379.245)" fill="#fff"/>
</svg>
